<?xml version="1.0" encoding="UTF-8" standalone="no"?>
<svg
   xmlns:dc="http://purl.org/dc/elements/1.1/"
   xmlns:cc="http://creativecommons.org/ns#"
   xmlns:rdf="http://www.w3.org/1999/02/22-rdf-syntax-ns#"
   xmlns:svg="http://www.w3.org/2000/svg"
   xmlns="http://www.w3.org/2000/svg"
   xmlns:sodipodi="http://sodipodi.sourceforge.net/DTD/sodipodi-0.dtd"
   xmlns:inkscape="http://www.inkscape.org/namespaces/inkscape"
   width="64"
   height="64"
   version="1.1"
   viewBox="0 0 64 64"
   id="svg6"
   sodipodi:docname="artifactory-logo-black.svg"
   inkscape:version="0.92.1 r15371">
  <metadata
     id="metadata12">
    <rdf:RDF>
      <cc:Work
         rdf:about="">
        <dc:format>image/svg+xml</dc:format>
        <dc:type
           rdf:resource="http://purl.org/dc/dcmitype/StillImage" />
        <dc:title></dc:title>
      </cc:Work>
    </rdf:RDF>
  </metadata>
  <defs
     id="defs10" />
  <sodipodi:namedview
     pagecolor="#ffffff"
     bordercolor="#666666"
     borderopacity="1"
     objecttolerance="10"
     gridtolerance="10"
     guidetolerance="10"
     inkscape:pageopacity="0"
     inkscape:pageshadow="2"
     inkscape:window-width="640"
     inkscape:window-height="480"
     id="namedview8"
     showgrid="false"
     inkscape:zoom="8.875"
     inkscape:cx="15.15493"
     inkscape:cy="32"
     inkscape:current-layer="svg6" />
  <rect
     x="16.8"
     y="56"
     width="30.5"
     height="7.9"
     rx="2.2"
     style="fill:#000;stroke-width:1.5;stroke:#000"
     id="rect2" />
  <path
     d="M31.9 0C20.3 0 12 8.7 12 21.8 12 33.5 20.1 44 31.9 44 43.9 44 52 33.5 52 21.8 52 8.6 43.4 0 31.9 0Zm7.3 21.4c0 7.2-0.4 17.6-7.3 17.6l0 0c-7 0-7.2-10.4-7.2-17.6 0-8.5 0.7-16.7 7.2-16.7 6.5 0 7.3 8.2 7.3 16.7l0 0z"
     id="path4" />
</svg>
