<?xml version="1.0" encoding="UTF-8" standalone="no"?>
<!-- Created with Inkscape (http://www.inkscape.org/) -->

<svg
   xmlns:dc="http://purl.org/dc/elements/1.1/"
   xmlns:cc="http://creativecommons.org/ns#"
   xmlns:rdf="http://www.w3.org/1999/02/22-rdf-syntax-ns#"
   xmlns:svg="http://www.w3.org/2000/svg"
   xmlns="http://www.w3.org/2000/svg"
   xmlns:sodipodi="http://sodipodi.sourceforge.net/DTD/sodipodi-0.dtd"
   xmlns:inkscape="http://www.inkscape.org/namespaces/inkscape"
   width="210mm"
   height="297mm"
   viewBox="0 0 210 297"
   version="1.1"
   id="svg22"
   inkscape:version="0.92.1 r15371"
   sodipodi:docname="artifactory-logo.svg">
  <defs
     id="defs16">
    <clipPath
       id="clipPath3710"
       clipPathUnits="userSpaceOnUse">
      <path
         inkscape:connector-curvature="0"
         id="path3708"
         d="M 0,136.32 H 219.23 V 0 H 0 Z" />
    </clipPath>
  </defs>
  <sodipodi:namedview
     id="base"
     pagecolor="#ffffff"
     bordercolor="#666666"
     borderopacity="1.0"
     inkscape:pageopacity="0.0"
     inkscape:pageshadow="2"
     inkscape:zoom="0.35"
     inkscape:cx="400"
     inkscape:cy="560"
     inkscape:document-units="mm"
     inkscape:current-layer="g3706"
     showgrid="false" />
  <metadata
     id="metadata19">
    <rdf:RDF>
      <cc:Work
         rdf:about="">
        <dc:format>image/svg+xml</dc:format>
        <dc:type
           rdf:resource="http://purl.org/dc/dcmitype/StillImage" />
        <dc:title></dc:title>
      </cc:Work>
    </rdf:RDF>
  </metadata>
  <g
     inkscape:label="Layer 1"
     inkscape:groupmode="layer"
     id="layer1">
    <g
       transform="matrix(0.35277777,0,0,-0.35277777,67.163598,172.87861)"
       inkscape:label="Artifactory_HEX"
       id="g3702">
      <g
         id="g3704">
        <g
           clip-path="url(#clipPath3710)"
           id="g3706">
          <g
             transform="translate(109.583,125.9386)"
             id="g3776">
            <path
               inkscape:connector-curvature="0"
               id="path3778"
               style="fill:#61a63a;fill-opacity:1;fill-rule:nonzero;stroke:none"
               d="m 0,0 c -13.76,0 -24.953,-11.193 -24.953,-24.953 0,-13.759 11.193,-24.952 24.953,-24.952 13.76,0 24.953,11.193 24.953,24.952 C 24.953,-11.193 13.76,0 0,0 m 0,-55.284 c -16.725,0 -30.332,13.606 -30.332,30.331 0,16.725 13.607,30.332 30.332,30.332 16.725,0 30.332,-13.607 30.332,-30.332 0,-16.725 -13.607,-30.331 -30.332,-30.331" />
          </g>
          <path
             inkscape:connector-curvature="0"
             id="path3780"
             style="fill:#61a63a;fill-opacity:1;fill-rule:nonzero;stroke:none"
             d="M 139.979,53.05 H 79.662 v 5.379 h 60.317 z" />
        </g>
      </g>
    </g>
  </g>
</svg>
