<?xml version="1.0" encoding="UTF-8" standalone="no"?>
<svg
   xmlns:dc="http://purl.org/dc/elements/1.1/"
   xmlns:cc="http://creativecommons.org/ns#"
   xmlns:rdf="http://www.w3.org/1999/02/22-rdf-syntax-ns#"
   xmlns:svg="http://www.w3.org/2000/svg"
   xmlns="http://www.w3.org/2000/svg"
   xmlns:sodipodi="http://sodipodi.sourceforge.net/DTD/sodipodi-0.dtd"
   xmlns:inkscape="http://www.inkscape.org/namespaces/inkscape"
   width="2500"
   height="703"
   viewBox="0 0 512 144"
   preserveAspectRatio="xMidYMid"
   id="svg2"
   version="1.1"
   inkscape:version="0.91 r13725"
   sodipodi:docname="centos-logo.svg">
  <metadata
     id="metadata34">
    <rdf:RDF>
      <cc:Work
         rdf:about="">
        <dc:format>image/svg+xml</dc:format>
        <dc:type
           rdf:resource="http://purl.org/dc/dcmitype/StillImage" />
        <dc:title></dc:title>
      </cc:Work>
    </rdf:RDF>
  </metadata>
  <defs
     id="defs32" />
  <sodipodi:namedview
     pagecolor="#ffffff"
     bordercolor="#666666"
     borderopacity="1"
     objecttolerance="10"
     gridtolerance="10"
     guidetolerance="10"
     inkscape:pageopacity="0"
     inkscape:pageshadow="2"
     inkscape:window-width="640"
     inkscape:window-height="480"
     id="namedview30"
     showgrid="false"
     inkscape:zoom="0.526"
     inkscape:cx="447.23064"
     inkscape:cy="270.17906"
     inkscape:current-layer="svg2" />
  <path
     d="M60.672 66.736l5.19 5.162-5.19 5.16h-36.54v17.197L1.848 71.898l22.284-21.982v16.82h36.54z"
     fill="#932279"
     id="path6"
     inkscape:export-xdpi="4.2706027"
     inkscape:export-ydpi="4.2706027" />
  <path
     d="M77.217 60.672l-5.16 5.19-5.162-5.19v-36.54H49.698L72.056 1.848l21.981 22.284h-16.82v36.54z"
     fill="#EFA724"
     id="path8"
     inkscape:export-xdpi="4.2706027"
     inkscape:export-ydpi="4.2706027" />
  <path
     d="M83.282 77.217l-5.192-5.16 5.192-5.162h36.539V49.698l22.284 22.358-22.284 21.981v-16.82H83.282z"
     fill="#262577"
     id="path10"
     inkscape:export-xdpi="4.2706027"
     inkscape:export-ydpi="4.2706027" />
  <path
     d="M66.736 83.282l5.16-5.192 5.162 5.192v36.54h17.197l-22.358 22.283-21.98-22.283h16.819v-36.54zM22.822 22.822H67.22v44.399H22.822V22.822z"
     fill="#9CCD2A"
     id="path12" />
  <path
     d="M21.237 21.237h47.569v47.569h-47.57v-47.57zm3.17 44.398h41.227V24.408H24.407v41.227z"
     fill="#FFF"
     id="path14"
     inkscape:export-xdpi="4.2706027"
     inkscape:export-ydpi="4.2706027" />
  <path
     d="M76.733 22.822h44.397v44.399H76.733V22.822z"
     fill="#932279"
     id="path16"
     inkscape:export-xdpi="4.2706027"
     inkscape:export-ydpi="4.2706027" />
  <path
     d="M75.148 21.237h47.57v47.569h-47.57v-47.57zm3.171 44.398h41.227V24.408H78.319v41.227z"
     fill="#FFF"
     id="path18"
     inkscape:export-xdpi="4.2706027"
     inkscape:export-ydpi="4.2706027" />
  <path
     d="M76.733 76.733h44.397v44.398H76.733V76.733z"
     fill="#EFA724"
     id="path20"
     inkscape:export-xdpi="4.2706027"
     inkscape:export-ydpi="4.2706027" />
  <path
     d="M75.148 75.148h47.57v47.57h-47.57v-47.57zm3.171 44.398h41.227V78.319H78.319v41.227z"
     fill="#FFF"
     id="path22"
     inkscape:export-xdpi="4.2706027"
     inkscape:export-ydpi="4.2706027" />
  <path
     d="M22.822 76.733H67.22v44.398H22.822V76.733z"
     fill="#262577"
     id="path24"
     inkscape:export-xdpi="4.2706027"
     inkscape:export-ydpi="4.2706027" />
  <path
     d="M21.237 75.148h47.569v47.57h-47.57v-47.57zm3.17 44.398h41.227V78.319H24.407v41.227z"
     fill="#FFF"
     id="path26"
     inkscape:export-xdpi="4.2706027"
     inkscape:export-ydpi="4.2706027" />
  <path
     d="M33.856 105.614L.219 71.976 33.855 38.34l33.637 33.636-33.636 33.638zM4.704 71.976l29.152 29.152 29.15-29.152-29.151-29.15-29.151 29.15zM71.976 67.492L38.34 33.856 71.976.219l33.637 33.637-33.637 33.636zm-29.15-33.636l29.15 29.15 29.152-29.15L71.976 4.704l-29.15 29.152zM110.098 105.614L76.462 71.976l33.636-33.636 33.636 33.636-33.636 33.638zM80.946 71.976l29.152 29.152 29.151-29.152-29.151-29.15-29.152 29.15zM71.976 143.734L38.34 110.098l33.636-33.636 33.637 33.636-33.637 33.636zm-29.15-33.636l29.15 29.151 29.152-29.151-29.152-29.151-29.15 29.151z"
     fill="#FFF"
     id="path28" />
</svg>
