<?xml version="1.0" encoding="UTF-8" standalone="no"?>
<svg
   xmlns:dc="http://purl.org/dc/elements/1.1/"
   xmlns:cc="http://creativecommons.org/ns#"
   xmlns:rdf="http://www.w3.org/1999/02/22-rdf-syntax-ns#"
   xmlns:svg="http://www.w3.org/2000/svg"
   xmlns="http://www.w3.org/2000/svg"
   xmlns:sodipodi="http://sodipodi.sourceforge.net/DTD/sodipodi-0.dtd"
   xmlns:inkscape="http://www.inkscape.org/namespaces/inkscape"
   id="Conf_-_Blue"
   viewBox="0 0 952.1 144.2"
   width="2500"
   height="379"
   version="1.1"
   inkscape:version="0.91 r13725"
   sodipodi:docname="confluence-logo.svg">
  <metadata
     id="metadata17">
    <rdf:RDF>
      <cc:Work
         rdf:about="">
        <dc:format>image/svg+xml</dc:format>
        <dc:type
           rdf:resource="http://purl.org/dc/dcmitype/StillImage" />
        <dc:title></dc:title>
      </cc:Work>
    </rdf:RDF>
  </metadata>
  <defs
     id="defs15" />
  <sodipodi:namedview
     pagecolor="#ffffff"
     bordercolor="#666666"
     borderopacity="1"
     objecttolerance="10"
     gridtolerance="10"
     guidetolerance="10"
     inkscape:pageopacity="0"
     inkscape:pageshadow="2"
     inkscape:window-width="640"
     inkscape:window-height="480"
     id="namedview13"
     showgrid="false"
     inkscape:zoom="0.526"
     inkscape:cx="232.09148"
     inkscape:cy="189.5"
     inkscape:current-layer="Conf_-_Blue" />
  <style
     id="style3">.st0{fill:#205081}</style>
  <g
     id="g7"
     inkscape:export-xdpi="6.7443199"
     inkscape:export-ydpi="6.7443199">
    <path
       class="st0"
       d="M113.6 96.7c-2-4-4.4-8-7.2-12.1-2-2.9-4.1-5.8-6.4-8.6-.9-1.1-.5-2.5.2-3.2l2.1-2.1c9.6-9.8 19.5-19.9 27.1-30.8 8.1-11.6 12.6-22.6 13.7-34 .1-1.1-.4-2.3-1.3-3-.6-.5-1.3-.7-2.1-.7-.4 0-.8.1-1.2.2-7.4 2.8-14.8 5-21.7 6.5-1.4.3-2.5 1.4-3 2.6-5 13.6-17.7 26.6-31 40.2-.5.5-1.3 1.2-2.5 1.2s-2-.6-2.5-1.2c-13.3-13.6-26-26.5-31-40.2-.5-1.2-1.6-2.3-3-2.6C37 7.3 29.5 5 22.1 2.2c-.4-.2-.8-.2-1.2-.2-.7 0-1.5.2-2.1.7-.9.7-1.4 1.9-1.3 3 1.1 11.3 5.6 22.5 13.7 34.1 7.6 10.9 17.5 21 27.1 30.8 17.7 18 34.3 35 35.8 54.7a3.4 3.4 0 0 0 3.4 3.2h20.7c.9 0 1.8-.4 2.5-1.1.6-.7 1-1.6.9-2.5-.2-3.7-.7-7.4-1.6-11.2v-.3c0-.8.6-1.4 1.4-1.4h.2c16.9 2.5 27.6 6.4 27.7 10.8 0 4.1-9.6 10.3-25.3 14.9-1.4.4-2.4 1.7-2.4 3.1 0 1.8 1.5 3.3 3.3 3.3.3 0 .5 0 .7-.1 21-4.9 35-13 35-22.3-.1-10.8-18.9-20.5-47-25zM58 86.1c-.4-.4-1.3-1-2.4-1-1.5 0-2.5 1-2.8 1.5-2.3 3.4-4.2 6.8-5.9 10.2C18.8 101.2 0 111 0 121.9c0 9.2 13.8 17.4 34.9 22.3.2.1.5.1.8.1 1.8 0 3.3-1.5 3.3-3.3 0-1.5-1-2.7-2.4-3.1-15.6-4.6-25.2-10.8-25.2-14.9 0-4.4 10.7-8.3 27.6-10.8h.2c.8 0 1.4.6 1.4 1.4v.3c-.9 3.7-1.4 7.4-1.6 11.1 0 .9.3 1.9.9 2.5.6.7 1.5 1.1 2.5 1.1H63c1.8 0 3.3-1.4 3.4-3.2.5-6.1 2.3-12.1 5.8-18.5 1.2-2.2.3-4.3-.4-5.2-3.4-4.4-7.6-9.2-13.8-15.6z"
       id="path9" />
    <path
       class="st0"
       d="M77.9 34.8c.8.8 1.7.9 2.4.9.6 0 1.6-.1 2.4-.9 7.3-7.1 11.2-15.4 12.1-17.7.1-.3.3-.7.3-1.3 0-1.8-1.5-3.2-3.1-3.2-1.3 0-5.1.4-11.6.4s-10.3-.4-11.6-.4c-1.6 0-3.1 1.3-3.1 3.2 0 .5.1.9.3 1.3.6 2.3 4.6 10.6 11.9 17.7z"
       id="path11" />
  </g>
</svg>
