<?xml version="1.0" encoding="UTF-8" standalone="no"?>
<svg
   xmlns:dc="http://purl.org/dc/elements/1.1/"
   xmlns:cc="http://creativecommons.org/ns#"
   xmlns:rdf="http://www.w3.org/1999/02/22-rdf-syntax-ns#"
   xmlns:svg="http://www.w3.org/2000/svg"
   xmlns="http://www.w3.org/2000/svg"
   xmlns:sodipodi="http://sodipodi.sourceforge.net/DTD/sodipodi-0.dtd"
   xmlns:inkscape="http://www.inkscape.org/namespaces/inkscape"
   width="256px"
   height="215px"
   viewBox="0 0 256 215"
   version="1.1"
   id="svg44"
   sodipodi:docname="docker-logo.svg"
   inkscape:version="0.92.1 r15371">
  <metadata
     id="metadata50">
    <rdf:RDF>
      <cc:Work
         rdf:about="">
        <dc:format>image/svg+xml</dc:format>
        <dc:type
           rdf:resource="http://purl.org/dc/dcmitype/StillImage" />
        <dc:title></dc:title>
      </cc:Work>
    </rdf:RDF>
  </metadata>
  <defs
     id="defs48" />
  <sodipodi:namedview
     pagecolor="#ffffff"
     bordercolor="#666666"
     borderopacity="1"
     objecttolerance="10"
     gridtolerance="10"
     guidetolerance="10"
     inkscape:pageopacity="0"
     inkscape:pageshadow="2"
     inkscape:window-width="640"
     inkscape:window-height="480"
     id="namedview46"
     showgrid="false"
     inkscape:zoom="3.3348837"
     inkscape:cx="117.2528"
     inkscape:cy="142.88166"
     inkscape:current-layer="g42" />
  <g
     stroke="none"
     stroke-width="1"
     fill="none"
     fill-rule="evenodd"
     id="g42">
    <path
       d="M147.487598,45.7324184 L170.35354,45.7324184 L170.35354,69.1071464 L181.915314,69.1071464 C187.25436,69.1071464 192.746042,68.1559833 197.80231,66.4427113 C200.286795,65.6002678 203.075481,64.4279163 205.526226,62.9535063 C202.298377,58.7391464 200.650444,53.4177741 200.165222,48.1724519 C199.506477,41.0381925 200.94554,31.7520335 205.774192,26.1682343 L208.177808,23.3881172 L211.042008,25.6905105 C218.253389,31.484251 224.318126,39.5798494 225.387113,48.8087029 C234.070226,46.2545941 244.264703,46.8587113 251.91846,51.2760502 L255.058477,53.0878661 L253.405724,56.3135732 C246.932887,68.946477 233.40077,72.8598494 220.170711,72.167364 C200.373556,121.475749 157.272904,144.81995 105.013556,144.81995 C78.0146611,144.81995 53.2437155,134.72723 39.1380084,110.773021 L38.9066444,110.382059 L36.851682,106.200904 C32.0835481,95.6567029 30.4998828,84.1056402 31.5742259,72.5642176 L31.896636,69.1071464 L51.4495732,69.1071464 L51.4495732,45.7324184 L74.3149791,45.7324184 L74.3149791,22.8659414 L120.047933,22.8659414 L120.047933,0 L147.487598,0 L147.487598,45.7324184"
       fill="#364548"
       id="path4" />
    <path
       d="M221.570142,54.3796485 C223.103464,42.4644017 214.18631,33.1048703 208.656067,28.6612887 C202.283381,36.0290544 201.293121,55.3388452 211.291046,63.4687197 C205.711531,68.4248368 193.953741,72.9171548 181.915314,72.9171548 L35.3703096,72.9171548 C34.1995649,85.4841841 36.4060921,97.0566695 41.4446862,106.962477 L43.1118996,110.011448 C44.1674979,111.802912 45.320569,113.531715 46.5668285,115.196251 L46.567364,115.196251 C52.5919331,115.582929 58.1468117,115.71682 63.2287866,115.604351 L63.2309289,115.604351 C73.2181423,115.383163 81.3667615,114.204921 87.5428954,112.064803 C88.4624603,111.745071 89.4645021,112.232971 89.7826276,113.151464 C90.1002176,114.069958 89.6139247,115.072536 88.695431,115.391197 C87.87441,115.675582 87.0180418,115.941757 86.1338243,116.194544 C86.1327531,116.195079 86.131682,116.195079 86.1306109,116.195615 C81.267682,117.583799 76.0534226,118.51836 69.3251213,118.933423 C69.7241172,118.939849 68.9089874,118.993406 68.9068452,118.993941 C68.678159,119.007866 68.3900251,119.040536 68.1602678,119.053389 C65.5124351,119.201741 62.6541255,119.232803 59.7320837,119.232803 C56.5363682,119.232803 53.3888536,119.172285 49.8701925,118.993941 L49.7802176,119.053389 C61.9905607,132.777238 81.0823766,141.008335 105.013556,141.008335 C155.661925,141.008335 198.622259,118.556385 217.645523,68.1506276 C231.142293,69.5355983 244.113138,66.0940586 250.013456,54.5762008 C240.614828,49.1525356 228.529272,50.8818745 221.570142,54.3796485"
       fill="#22A0C8"
       id="path6" />
    <path
       d="M221.570142,54.3796485 C223.103464,42.4644017 214.18631,33.1048703 208.656067,28.6612887 C202.283381,36.0290544 201.293121,55.3388452 211.291046,63.4687197 C205.711531,68.4248368 193.953741,72.9171548 181.915314,72.9171548 L44.0480669,72.9171548 C43.449841,92.1632134 50.5921339,106.772351 63.2287866,115.604351 L63.2309289,115.604351 C73.2181423,115.383163 81.3667615,114.204921 87.5428954,112.064803 C88.4624603,111.745071 89.4645021,112.232971 89.7826276,113.151464 C90.1002176,114.069958 89.6139247,115.072536 88.695431,115.391197 C87.87441,115.675582 87.0180418,115.941757 86.1338243,116.194544 C86.1327531,116.195079 86.131682,116.195079 86.1306109,116.195615 C81.267682,117.583799 75.6051548,118.638326 68.8768536,119.053389 C68.8752469,119.053389 68.7140418,118.89754 68.7118996,118.898075 C85.9485188,127.739715 110.942259,127.708117 139.597121,116.700653 C171.727799,104.35749 201.625707,80.8408368 222.487565,53.9436987 C222.172653,54.0856234 221.86631,54.2312971 221.570142,54.3796485"
       fill="#37B1D9"
       id="path8" />
    <path
       d="M35.6445188,88.1861088 C36.5555146,94.9176234 38.524251,101.220686 41.4446862,106.962477 L43.1118996,110.011448 C44.1674979,111.802912 45.320569,113.531715 46.567364,115.196251 C52.5930042,115.582929 58.1484184,115.71682 63.2309289,115.604351 C73.2181423,115.383163 81.3667615,114.204921 87.5428954,112.064803 C88.4624603,111.745071 89.4645021,112.232971 89.7826276,113.151464 C90.1002176,114.069958 89.6139247,115.072536 88.695431,115.391197 C87.87441,115.675582 87.0180418,115.941757 86.1338243,116.194544 C86.1327531,116.195079 86.131682,116.195079 86.1306109,116.195615 C81.267682,117.583799 75.6351464,118.578343 68.9068452,118.993941 C68.6760167,119.007866 68.273272,119.010544 68.0403013,119.023397 C65.3935397,119.172285 62.5646862,119.262795 59.6421088,119.262795 C56.4469289,119.262795 53.1794477,119.201741 49.6613222,119.023397 C61.8711297,132.747247 81.0823766,141.008335 105.013556,141.008335 C148.373423,141.008335 186.09754,124.550427 207.992502,88.1861088 L35.6445188,88.1861088"
       fill="#1B81A5"
       id="path10" />
    <path
       d="M45.3671632,88.1861088 C47.9592971,100.00549 54.1884519,109.284686 63.2309289,115.604351 C73.2181423,115.383163 81.3667615,114.204921 87.5428954,112.064803 C88.4624603,111.745071 89.4645021,112.232971 89.7826276,113.151464 C90.1002176,114.069958 89.6139247,115.072536 88.695431,115.391197 C87.87441,115.675582 87.0180418,115.941757 86.1338243,116.194544 C86.1327531,116.195079 86.131682,116.195079 86.1306109,116.195615 C81.267682,117.583799 75.5157155,118.578343 68.7874142,118.993941 C86.0229623,127.833975 110.944402,127.707046 139.597121,116.700653 C156.931213,110.040904 173.614059,100.126527 188.58149,88.1861088 L45.3671632,88.1861088"
       fill="#1D91B4"
       id="path12" />
    <path
       d="M55.2606527,49.5429623 L75.0776234,49.5429623 L75.0776234,69.3610042 L55.2606527,69.3610042 L55.2606527,49.5429623 Z M56.9112636,51.1946444 L58.475113,51.1946444 L58.475113,67.7103933 L56.9112636,67.7103933 L56.9112636,51.1946444 Z M59.8515146,51.1946444 L61.4780251,51.1946444 L61.4780251,67.7103933 L59.8515146,67.7103933 L59.8515146,51.1946444 Z M62.8533556,51.1946444 L64.4798661,51.1946444 L64.4798661,67.7103933 L62.8533556,67.7103933 L62.8533556,51.1946444 Z M65.8568033,51.1946444 L67.4833138,51.1946444 L67.4833138,67.7103933 L65.8568033,67.7103933 L65.8568033,51.1946444 Z M68.8597155,51.1946444 L70.4862259,51.1946444 L70.4862259,67.7103933 L68.8597155,67.7103933 L68.8597155,51.1946444 Z M71.8620921,51.1946444 L73.4270126,51.1946444 L73.4270126,67.7103933 L71.8620921,67.7103933 L71.8620921,51.1946444 Z"
       fill="#23A3C2"
       id="path14" />
    <path
       d="M78.125523,26.6770209 L97.944636,26.6770209 L97.944636,46.4939916 L78.125523,46.4939916 L78.125523,26.6770209 Z M79.7782762,28.3287029 L81.3410544,28.3287029 L81.3410544,44.8428452 L79.7782762,44.8428452 L79.7782762,28.3287029 Z M82.7185272,28.3287029 L84.3439665,28.3287029 L84.3439665,44.8428452 L82.7185272,44.8428452 L82.7185272,28.3287029 Z M85.7198326,28.3287029 L87.3463431,28.3287029 L87.3463431,44.8428452 L85.7198326,44.8428452 L85.7198326,28.3287029 Z M88.7227448,28.3287029 L90.3492552,28.3287029 L90.3492552,44.8428452 L88.7227448,44.8428452 L88.7227448,28.3287029 Z M91.7261925,28.3287029 L93.3527029,28.3287029 L93.3527029,44.8428452 L91.7261925,44.8428452 L91.7261925,28.3287029 Z M94.7280335,28.3287029 L96.2940251,28.3287029 L96.2940251,44.8428452 L94.7280335,44.8428452 L94.7280335,28.3287029 Z"
       fill="#23A3C2"
       id="path16" />
    <path
       d="M78.125523,49.5429623 L97.944636,49.5429623 L97.944636,69.3610042 L78.125523,69.3610042 L78.125523,49.5429623 Z M79.7782762,51.1946444 L81.3410544,51.1946444 L81.3410544,67.7103933 L79.7782762,67.7103933 L79.7782762,51.1946444 Z M82.7185272,51.1946444 L84.3439665,51.1946444 L84.3439665,67.7103933 L82.7185272,67.7103933 L82.7185272,51.1946444 Z M85.7198326,51.1946444 L87.3463431,51.1946444 L87.3463431,67.7103933 L85.7198326,67.7103933 L85.7198326,51.1946444 Z M88.7227448,51.1946444 L90.3492552,51.1946444 L90.3492552,67.7103933 L88.7227448,67.7103933 L88.7227448,51.1946444 Z M91.7261925,51.1946444 L93.3527029,51.1946444 L93.3527029,67.7103933 L91.7261925,67.7103933 L91.7261925,51.1946444 Z M94.7280335,51.1946444 L96.2940251,51.1946444 L96.2940251,67.7103933 L94.7280335,67.7103933 L94.7280335,51.1946444 Z"
       fill="#34BBDE"
       id="path18" />
    <path
       d="M100.992536,49.5429623 L120.810577,49.5429623 L120.810577,69.3610042 L100.992536,69.3610042 L100.992536,49.5429623 Z M102.644218,51.1946444 L104.206996,51.1946444 L104.206996,67.7103933 L102.644218,67.7103933 L102.644218,51.1946444 Z M105.583933,51.1946444 L107.210444,51.1946444 L107.210444,67.7103933 L105.583933,67.7103933 L105.583933,51.1946444 Z M108.586845,51.1946444 L110.213356,51.1946444 L110.213356,67.7103933 L108.586845,67.7103933 L108.586845,51.1946444 Z M111.589757,51.1946444 L113.216268,51.1946444 L113.216268,67.7103933 L111.589757,67.7103933 L111.589757,51.1946444 Z M114.592134,51.1946444 L116.219715,51.1946444 L116.219715,67.7103933 L114.592134,67.7103933 L114.592134,51.1946444 Z M117.595046,51.1946444 L119.158895,51.1946444 L119.158895,67.7103933 L117.595046,67.7103933 L117.595046,51.1946444 Z"
       fill="#23A3C2"
       id="path20" />
    <path
       d="M100.992536,26.6770209 L120.810577,26.6770209 L120.810577,46.4939916 L100.992536,46.4939916 L100.992536,26.6770209 Z M102.644218,28.3287029 L104.206996,28.3287029 L104.206996,44.8428452 L102.644218,44.8428452 L102.644218,28.3287029 Z M105.583933,28.3287029 L107.210444,28.3287029 L107.210444,44.8428452 L105.583933,44.8428452 L105.583933,28.3287029 Z M108.586845,28.3287029 L110.213356,28.3287029 L110.213356,44.8428452 L108.586845,44.8428452 L108.586845,28.3287029 Z M111.589757,28.3287029 L113.216268,28.3287029 L113.216268,44.8428452 L111.589757,44.8428452 L111.589757,28.3287029 Z M114.592134,28.3287029 L116.219715,28.3287029 L116.219715,44.8428452 L114.592134,44.8428452 L114.592134,28.3287029 Z M117.595046,28.3287029 L119.158895,28.3287029 L119.158895,44.8428452 L117.595046,44.8428452 L117.595046,28.3287029 Z"
       fill="#34BBDE"
       id="path22" />
    <path
       d="M123.859013,49.5429623 L143.676519,49.5429623 L143.676519,69.3610042 L123.859013,69.3610042 L123.859013,49.5429623 Z M125.510695,51.1946444 L127.074008,51.1946444 L127.074008,67.7103933 L125.510695,67.7103933 L125.510695,51.1946444 Z M128.450946,51.1946444 L130.077456,51.1946444 L130.077456,67.7103933 L128.450946,67.7103933 L128.450946,51.1946444 Z M131.452787,51.1946444 L133.079297,51.1946444 L133.079297,67.7103933 L131.452787,67.7103933 L131.452787,51.1946444 Z M134.456234,51.1946444 L136.082745,51.1946444 L136.082745,67.7103933 L134.456234,67.7103933 L134.456234,51.1946444 Z M137.459146,51.1946444 L139.085657,51.1946444 L139.085657,67.7103933 L137.459146,67.7103933 L137.459146,51.1946444 Z M140.461523,51.1946444 L142.025908,51.1946444 L142.025908,67.7103933 L140.461523,67.7103933 L140.461523,51.1946444 Z"
       fill="#34BBDE"
       id="path24" />
    <path
       d="M123.859013,26.6770209 L143.676519,26.6770209 L143.676519,46.4939916 L123.859013,46.4939916 L123.859013,26.6770209 Z M125.510695,28.3287029 L127.074008,28.3287029 L127.074008,44.8428452 L125.510695,44.8428452 L125.510695,28.3287029 Z M128.450946,28.3287029 L130.077456,28.3287029 L130.077456,44.8428452 L128.450946,44.8428452 L128.450946,28.3287029 Z M131.452787,28.3287029 L133.079297,28.3287029 L133.079297,44.8428452 L131.452787,44.8428452 L131.452787,28.3287029 Z M134.456234,28.3287029 L136.082745,28.3287029 L136.082745,44.8428452 L134.456234,44.8428452 L134.456234,28.3287029 Z M137.459146,28.3287029 L139.085657,28.3287029 L139.085657,44.8428452 L137.459146,44.8428452 L137.459146,28.3287029 Z M140.461523,28.3287029 L142.025908,28.3287029 L142.025908,44.8428452 L140.461523,44.8428452 L140.461523,28.3287029 Z"
       fill="#23A3C2"
       id="path26" />
    <path
       d="M123.859013,3.81054393 L143.676519,3.81054393 L143.676519,23.6285858 L123.859013,23.6285858 L123.859013,3.81054393 Z M125.510695,5.46115481 L127.074008,5.46115481 L127.074008,21.9769038 L125.510695,21.9769038 L125.510695,5.46115481 Z M128.450946,5.46115481 L130.077456,5.46115481 L130.077456,21.9769038 L128.450946,21.9769038 L128.450946,5.46115481 Z M131.452787,5.46115481 L133.079297,5.46115481 L133.079297,21.9769038 L131.452787,21.9769038 L131.452787,5.46115481 Z M134.456234,5.46115481 L136.082745,5.46115481 L136.082745,21.9769038 L134.456234,21.9769038 L134.456234,5.46115481 Z M137.459146,5.46115481 L139.085657,5.46115481 L139.085657,21.9769038 L137.459146,21.9769038 L137.459146,5.46115481 Z M140.461523,5.46115481 L142.025908,5.46115481 L142.025908,21.9769038 L140.461523,21.9769038 L140.461523,5.46115481 Z"
       fill="#34BBDE"
       id="path28" />
    <path
       d="M146.724954,49.5429623 L166.542996,49.5429623 L166.542996,69.3610042 L146.724954,69.3610042 L146.724954,49.5429623 Z M148.375565,51.1946444 L149.940485,51.1946444 L149.940485,67.7103933 L148.375565,67.7103933 L148.375565,51.1946444 Z M151.315816,51.1946444 L152.942326,51.1946444 L152.942326,67.7103933 L151.315816,67.7103933 L151.315816,51.1946444 Z M154.319264,51.1946444 L155.945774,51.1946444 L155.945774,67.7103933 L154.319264,67.7103933 L154.319264,51.1946444 Z M157.321105,51.1946444 L158.947615,51.1946444 L158.947615,67.7103933 L157.321105,67.7103933 L157.321105,51.1946444 Z M160.325088,51.1946444 L161.951063,51.1946444 L161.951063,67.7103933 L160.325088,67.7103933 L160.325088,51.1946444 Z M163.327464,51.1946444 L164.891314,51.1946444 L164.891314,67.7103933 L163.327464,67.7103933 L163.327464,51.1946444 Z"
       fill="#23A3C2"
       id="path30" />
    <path
       d="M96.7037322,101.491682 C99.7227113,101.491682 102.170243,103.940285 102.170243,106.959264 C102.170243,109.978243 99.7227113,112.425774 96.7037322,112.425774 C93.6842176,112.425774 91.2361506,109.978243 91.2361506,106.959264 C91.2361506,103.940285 93.6842176,101.491682 96.7037322,101.491682"
       fill="#D3ECEC"
       id="path32" />
    <path
       d="M96.7037322,103.042678 C97.2039498,103.042678 97.6811381,103.136937 98.1213724,103.307782 C97.6441841,103.583598 97.3212385,104.100418 97.3212385,104.691682 C97.3212385,105.574293 98.0367531,106.288736 98.919364,106.288736 C99.5240167,106.288736 100.049406,105.952937 100.320937,105.457004 C100.512669,105.919197 100.619247,106.426912 100.619247,106.959264 C100.619247,109.121339 98.8663431,110.874243 96.7037322,110.874243 C94.5416569,110.874243 92.787682,109.121339 92.787682,106.959264 C92.787682,104.796117 94.5416569,103.042678 96.7037322,103.042678"
       fill="#364548"
       id="path34" />
    <path
       d="M0,90.1623431 L254.327431,90.1623431 C248.78969,88.7575565 236.806427,86.8600502 238.782661,79.6026109 C228.713506,91.2543598 204.429925,87.7769372 198.301456,82.0313975 C191.476753,91.9297071 151.746946,88.167364 148.975933,80.4563013 C140.420285,90.4970711 113.908753,90.4970711 105.352569,80.4563013 C102.580485,88.167364 62.8512134,91.9297071 56.0259749,82.0313975 C49.8975063,87.7769372 25.6160669,91.2543598 15.545841,79.6026109 C17.5220753,86.8600502 5.53881172,88.7575565 0,90.1623431"
       fill="#364548"
       id="path36" />
    <path
       d="M111.237356,140.889975 C97.6977406,134.464803 90.2657071,125.730812 86.1306109,116.195615 C81.1016569,117.631464 75.0556653,118.548887 68.0311967,118.943063 C65.3849707,119.091414 62.6016402,119.167464 59.6801339,119.167464 C56.3125021,119.167464 52.7638494,119.067849 49.0384603,118.870226 C61.4549958,131.279264 76.7303766,140.833741 105.013556,141.008335 C107.101724,141.008335 109.174895,140.967632 111.237356,140.889975"
       fill="#BDD9D7"
       id="path38" />
    <path
       d="M91.1601004,124.993874 C89.2866946,122.451013 87.469523,119.255297 86.1338243,116.194544 C81.1037992,117.630929 75.0567364,118.548887 68.0311967,118.943063 C72.856636,121.56251 79.7584603,123.98969 91.1601004,124.993874"
       fill="#D3ECEC"
       id="path40" />
  </g>
</svg>
