<?xml version="1.0" encoding="UTF-8" standalone="no"?>
<svg
   xmlns:dc="http://purl.org/dc/elements/1.1/"
   xmlns:cc="http://creativecommons.org/ns#"
   xmlns:rdf="http://www.w3.org/1999/02/22-rdf-syntax-ns#"
   xmlns:svg="http://www.w3.org/2000/svg"
   xmlns="http://www.w3.org/2000/svg"
   xmlns:sodipodi="http://sodipodi.sourceforge.net/DTD/sodipodi-0.dtd"
   xmlns:inkscape="http://www.inkscape.org/namespaces/inkscape"
   width="2500"
   height="766"
   viewBox="10 10 1017.716 311.856"
   version="1.1"
   id="svg80"
   sodipodi:docname="jenkins.svg"
   inkscape:version="0.92.1 r15371">
  <metadata
     id="metadata86">
    <rdf:RDF>
      <cc:Work
         rdf:about="">
        <dc:format>image/svg+xml</dc:format>
        <dc:type
           rdf:resource="http://purl.org/dc/dcmitype/StillImage" />
        <dc:title></dc:title>
      </cc:Work>
    </rdf:RDF>
  </metadata>
  <defs
     id="defs84" />
  <sodipodi:namedview
     pagecolor="#ffffff"
     bordercolor="#666666"
     borderopacity="1"
     objecttolerance="10"
     gridtolerance="10"
     guidetolerance="10"
     inkscape:pageopacity="0"
     inkscape:pageshadow="2"
     inkscape:window-width="640"
     inkscape:window-height="480"
     id="namedview82"
     showgrid="false"
     inkscape:zoom="0.3988"
     inkscape:cx="652.17344"
     inkscape:cy="383"
     inkscape:current-layer="svg80" />
  <path
     d="M232.147 160.275c0 61.786-48.968 111.874-109.375 111.874-60.405 0-109.373-50.088-109.373-111.874C13.399 98.488 62.367 48.4 122.772 48.4c60.407 0 109.375 50.089 109.375 111.876"
     fill="#d33833"
     id="path2"
     inkscape:export-xdpi="3.9856479"
     inkscape:export-ydpi="3.9856479" />
  <path
     d="M17.856 187.983s-7.917-116.668 99.583-120l-7.499-12.5-58.332 19.582L34.94 94.233 20.356 122.15l-8.334 32.5 2.5 21.666"
     fill="#ef3d3a"
     id="path4"
     inkscape:export-xdpi="3.9856479"
     inkscape:export-ydpi="3.9856479" />
  <path
     d="M47.86 83.956c-19.19 19.635-31.065 46.745-31.065 76.737 0 29.983 11.875 57.097 31.065 76.73 19.2 19.63 45.659 31.745 74.911 31.745 29.253 0 55.714-12.114 74.913-31.745 19.188-19.632 31.065-46.745 31.065-76.73 0-29.992-11.878-57.102-31.065-76.737-19.199-19.627-45.659-31.74-74.913-31.743-29.252.002-55.711 12.116-74.911 31.743zm-4.856 158.215C22.609 221.314 10 192.49 10 160.693c0-31.802 12.609-60.624 33.002-81.483 20.39-20.864 48.614-33.794 79.768-33.79 31.154-.004 59.381 12.926 79.767 33.79 20.397 20.859 33.008 49.684 33.004 81.483.003 31.796-12.607 60.62-33.004 81.478-20.386 20.862-48.613 33.792-79.767 33.792-31.153 0-59.378-12.93-79.766-33.792"
     fill="#231f20"
     id="path6"
     inkscape:export-xdpi="3.9856479"
     inkscape:export-ydpi="3.9856479" />
  <path
     d="M168.814 160.895l-16.668 2.5-22.5 2.5-14.583.416-14.167-.416-10.833-3.334-9.583-10.416-7.5-21.25-1.667-4.584-10-3.332-5.833-9.584-4.167-13.75 4.583-12.084 10.834-3.75 8.75 4.168 4.166 9.166 5-.834 1.667-2.082-1.667-9.584-.416-12.084 2.5-16.666-.097-9.52L94.23 34.23l13.333-9.584 23.333-10 25.834 3.75 22.5 16.25 10.416 16.667 6.668 12.083 1.666 30-5 25.834-9.166 22.916-8.75 12.084"
     fill="#f0d6b7"
     id="path8"
     inkscape:export-xdpi="3.9856479"
     inkscape:export-ydpi="3.9856479" />
  <path
     d="M154.646 232.978l-59.583 2.5v10l5 35-2.5 2.917-41.667-14.167-2.916-5-4.167-47.083-9.583-28.334-2.084-6.666L70.48 159.23l10.416-4.168 9.167 11.25 7.917 7.084 9.166 2.916 4.167 1.25 5 21.667 3.75 4.583 9.583-3.333-6.666 12.917 36.25 17.083-4.584 2.5"
     fill="#335061"
     id="path10"
     inkscape:export-xdpi="3.9856479"
     inkscape:export-ydpi="3.9856479" />
  <path
     d="M55.896 87.561l10.834-3.75 8.75 4.168 4.166 9.166 5-.834 1.25-5-2.5-9.582 2.5-22.918-2.084-12.5 7.5-8.75 16.25-12.916-4.582-6.25-22.918 11.25-9.582 7.5-5.417 11.666-8.333 11.25-2.5 13.334 1.666 14.166"
     fill="#6d6b6d"
     id="path12"
     inkscape:export-xdpi="3.9856479"
     inkscape:export-ydpi="3.9856479" />
  <path
     d="M72.979 48.395s6.25-15.416 31.25-22.916 1.25-5.418 1.25-5.418L78.395 30.48 67.979 40.895l-4.584 8.334 9.584-.834M60.479 84.645s-8.75-29.167 24.582-33.334l-1.25-5-22.916 5.418-6.666 21.666 1.666 14.166 4.584-2.916"
     fill="#dcd9d8"
     id="path14"
     inkscape:export-xdpi="3.9856479"
     inkscape:export-ydpi="3.9856479" />
  <path
     d="M73.811 123.395l5.456-5.286s2.462.286 2.878 3.202c.416 2.918 1.666 29.168 19.584 43.335 1.633 1.293-13.334-2.085-13.334-2.085L75.061 141.73M150.481 115.479s.972-12.63 4.374-11.659c3.401.971 3.401 4.373 3.401 4.373s-8.261 5.343-7.775 7.286M185.063 69.229s-6.87 1.45-7.5 7.5c-.633 6.051 7.5 1.25 8.75.832M134.646 69.646s-9.166 1.25-9.166 7.083c0 5.832 10.416 5.417 13.334 2.917M77.979 96.729s-15.834-9.584-17.5-.418c-1.668 9.168-5.418 15.834 2.5 25.418l-5.418-1.668-5-12.916-1.666-12.5 9.584-10.001 10.832.834 6.25 5 .418 6.25M85.479 70.479s7.082-36.668 42.916-43.75c29.503-5.831 44.999 1.25 50.834 7.916 0 0-26.25-31.249-51.25-21.666-25 9.582-43.334 27.082-42.918 38.332.71 19.16.418 19.168.418 19.168M182.146 38.811s-12.082-.416-12.5 10.418c0 0-.001 1.666.834 3.332 0 0 9.585-10.833 15.416-5"
     fill="#f7e4cd"
     id="path16"
     inkscape:export-xdpi="3.9856479"
     inkscape:export-ydpi="3.9856479" />
  <path
     d="M129.235 53.69s-2.08-16.629-16.256-6.961c-9.168 6.25-8.334 15-6.668 16.666 1.668 1.668 1.214 5.024 2.483 2.72 1.267-2.304.85-9.804 5.435-11.886 4.582-2.084 12.096-4.411 15.006-.539"
     fill="#f7e4cd"
     id="path18"
     inkscape:export-xdpi="3.9856479"
     inkscape:export-ydpi="3.9856479" />
  <path
     d="M90.061 166.311l-39.166 17.5s16.25 64.584 7.916 84.584l-5.832-2.082-.418-24.584-10.832-46.666-4.584-12.918 40.834-27.499 12.082 11.665M94.089 202.033l5.556 6.778v25h-6.666s-.834-17.5-.834-19.583c0-2.083.834-9.583.834-9.583M94.229 237.563l-18.75.832 5.416 3.75 13.334 2.083"
     fill="#49728b"
     id="path20"
     inkscape:export-xdpi="3.9856479"
     inkscape:export-ydpi="3.9856479" />
  <path
     d="M158.396 233.395l15.418-.417 3.75 38.333-15.834 2.083-3.334-39.999"
     fill="#335061"
     id="path22"
     inkscape:export-xdpi="3.9856479"
     inkscape:export-ydpi="3.9856479" />
  <path
     d="M162.563 233.395l23.332-1.25s9.584-24.167 9.584-25.417 8.334-35 8.334-35l-18.75-19.582-3.75-3.333-10 10v38.75l-8.75 35.832"
     fill="#335061"
     id="path24"
     inkscape:export-xdpi="3.9856479"
     inkscape:export-ydpi="3.9856479" />
  <path
     d="M172.979 230.478l-14.584 2.917 2.084 11.668c5.416 2.5 14.584-4.168 14.584-4.168M173.396 157.563l29.168 21.667.832-10-22.082-20.417-7.918 8.75"
     fill="#49728b"
     id="path26"
     inkscape:export-xdpi="3.9856479"
     inkscape:export-ydpi="3.9856479" />
  <path
     d="M108.689 315.483l-8.626-35.007-4.29-25.828-.71-19.172 39.043-2.078 24.29-.004-2.207 43.754 3.75 33.75-.418 6.25-31.665 2.5-19.167-4.165"
     fill="#fff"
     id="path28"
     inkscape:export-xdpi="3.9856479"
     inkscape:export-ydpi="3.9856479" />
  <path
     d="M152.979 232.978s-2.084 43.333 4.166 74.167c0 0-12.5 7.918-30.834 10l35.001-1.25 4.167-2.5-5-68.332-1.25-14.585"
     fill="#dcd9d8"
     id="path30"
     inkscape:export-xdpi="3.9856479"
     inkscape:export-ydpi="3.9856479" />
  <path
     d="M178.272 267.983l16.25-4.584 30.833-1.666 4.584-14.168-8.334-24.582-9.582-1.25-13.334 4.166-12.793 6.246-6.791-1.246-5.293 2.079"
     fill="#fff"
     id="path32"
     inkscape:export-xdpi="3.9856479"
     inkscape:export-ydpi="3.9856479" />
  <path
     d="M177.979 259.645s10.832-4.999 12.5-4.582l-4.584-22.918 5.417-2.082s3.75 21.666 3.75 24.166c0 0 23.333 1.25 25.417 1.25 0 0 5-9.583 3.75-19.583l4.583 13.333.417 7.5-6.667 10-7.5 1.667-12.5-.417-4.167-5.416-14.582 2.082-4.584 1.668"
     fill="#dcd9d8"
     id="path34"
     inkscape:export-xdpi="3.9856479"
     inkscape:export-ydpi="3.9856479" />
  <path
     d="M161.605 230.066l-9.166-23.332-9.584-13.75s2.083-5.834 5-5.834h9.584l9.166 3.334-.832 15.416-4.168 24.166"
     fill="#fff"
     id="path36"
     inkscape:export-xdpi="3.9856479"
     inkscape:export-ydpi="3.9856479" />
  <path
     d="M163.396 222.145s-11.666-22.499-11.666-25.832c0 0 2.083-5 5-3.75 2.916 1.25 9.166 4.582 9.166 4.582v-7.916l-14.166-2.918-9.584 1.25 16.25 38.334 3.334.418"
     fill="#dcd9d8"
     id="path38"
     inkscape:export-xdpi="3.9856479"
     inkscape:export-ydpi="3.9856479" />
  <path
     d="M112.439 167.15l-11.543-1.255-10.834-3.334v3.75l5.294 5.838 16.667 7.5"
     fill="#fff"
     id="path40"
     inkscape:export-xdpi="3.9856479"
     inkscape:export-ydpi="3.9856479" />
  <path
     d="M93.814 168.399s12.916 5.417 17.084 4.167l.413 4.995-11.664-2.495-7.083-5 1.25-1.667"
     fill="#dcd9d8"
     id="path42"
     inkscape:export-xdpi="3.9856479"
     inkscape:export-ydpi="3.9856479" />
  <path
     d="M178.227 188.568c-7.07-.208-13.457-1.048-19.05-2.625.38-2.293-.332-4.543.24-6.195 1.558-1.123 4.172-1.105 6.527-1.368-2.038-1.002-4.899-1.397-7.251-.82-.056-1.591-.77-2.577-1.202-3.822 3.975-1.42 13.359-10.72 18.638-7.64 2.515 1.465 3.584 9.832 3.779 13.9.163 3.377-.305 6.782-1.68 8.57"
     fill="#d33833"
     id="path44"
     inkscape:export-xdpi="3.9856479"
     inkscape:export-ydpi="3.9856479" />
  <path
     d="M178.227 188.568c-7.07-.208-13.457-1.048-19.05-2.625.38-2.293-.332-4.543.24-6.195 1.558-1.123 4.172-1.105 6.527-1.368-2.038-1.002-4.899-1.397-7.251-.82-.056-1.591-.77-2.577-1.202-3.822 3.975-1.42 13.359-10.72 18.638-7.64 2.515 1.465 3.584 9.832 3.779 13.9.163 3.377-.305 6.782-1.68 8.57z"
     fill="none"
     stroke="#d33833"
     stroke-width="2.5"
     id="path46"
     inkscape:export-xdpi="3.9856479"
     inkscape:export-ydpi="3.9856479" />
  <path
     d="M144.419 177.01c-.019.535-.042 1.074-.063 1.614-2.207 1.45-5.77 1.432-8.194 2.651 3.572.156 6.383 1.016 8.815 2.229l-.157 4.042c-4.046 2.77-7.742 6.895-12.506 9.493-2.253 1.229-10.159 4.39-12.555 3.831-1.355-.315-1.478-1.997-2.02-3.584-1.155-3.395-3.814-8.8-4.047-13.915-.294-6.457-.947-17.278 6.012-15.948 5.614 1.07 12.145 3.657 16.491 6.032 2.657 1.45 4.194 3.245 8.224 3.555"
     fill="#d33833"
     id="path48"
     inkscape:export-xdpi="3.9856479"
     inkscape:export-ydpi="3.9856479" />
  <path
     d="M144.419 177.01c-.019.535-.042 1.074-.063 1.614-2.207 1.45-5.77 1.432-8.194 2.651 3.572.156 6.383 1.016 8.815 2.229l-.157 4.042c-4.046 2.77-7.742 6.895-12.506 9.493-2.253 1.229-10.159 4.39-12.555 3.831-1.355-.315-1.478-1.997-2.02-3.584-1.155-3.395-3.814-8.8-4.047-13.915-.294-6.457-.947-17.278 6.012-15.948 5.614 1.07 12.145 3.657 16.491 6.032 2.657 1.45 4.194 3.245 8.224 3.555z"
     fill="none"
     stroke="#d33833"
     stroke-width="2.5"
     id="path50"
     inkscape:export-xdpi="3.9856479"
     inkscape:export-ydpi="3.9856479" />
  <path
     d="M148.438 184.715c-.62-3.517-1.333-4.521-1.057-7.591 9.383-6.254 11.144 10.745 1.056 7.591"
     fill="#d33833"
     id="path52"
     inkscape:export-xdpi="3.9856479"
     inkscape:export-ydpi="3.9856479" />
  <path
     d="M148.438 184.715c-.62-3.517-1.333-4.521-1.057-7.591 9.383-6.254 11.144 10.745 1.056 7.591z"
     fill="none"
     stroke="#d33833"
     stroke-width="2.5"
     id="path54"
     inkscape:export-xdpi="3.9856479"
     inkscape:export-ydpi="3.9856479" />
  <path
     d="M162.021 187.566s-2.917-4.167-.832-5.417c2.082-1.25 4.167.001 5.417-2.083 1.25-2.082 0-3.332.416-5.832.418-2.5 2.503-2.918 4.584-3.334 2.083-.416 7.918-1.25 8.75.834l-2.5-7.5-5-1.668-15.834 9.168-.832 4.582v9.168M118.271 201.316c-.501-6.502-1.03-12.996-1.62-19.492-.881-9.7 2.33-8.008 10.739-8.008 1.284 0 7.907 1.532 8.381 2.5 2.273 4.642-3.8 3.61 2.619 7.11 5.416 2.954 14.988-1.793 12.799-8.36-1.225-1.46-6.383-.455-8.231-1.412l-9.765-5.063c-4.142-2.15-13.713-5.28-18.13-2.278-11.187 7.61.707 26.62 4.698 34.557"
     fill="#ef3d3a"
     id="path56"
     inkscape:export-xdpi="3.9856479"
     inkscape:export-ydpi="3.9856479" />
  <path
     d="M129.235 53.69c-11.356-2.645-16.999 4.753-20.441 12.425-3.074-.745-1.85-4.925-1.074-7.055 2.033-5.59 10.225-13.031 16.918-12.022 2.88.433 6.778 3.067 4.597 6.652M184.569 66.623l.539.02c2.566 5.332 4.787 10.98 8.023 15.686-2.167 5.051-16.421 9.521-16.202.451 3.082-1.347 8.403-.275 11.136-1.996-1.579-4.336-3.859-8.028-3.496-14.161M135.05 66.761c2.435 4.464 3.228 9.154 6.689 12.528 1.559 1.519 4.59 3.37 3.087 7.594-.351.996-2.917 3.217-4.4 3.653-5.411 1.597-18.02.33-13.75-6.417 4.477.209 10.49 2.906 13.835-.341-2.567-4.107-7.146-12.23-5.461-17.017M182.537 112.129c-8.147 5.235-17.232 10.925-30.582 9.605-2.853-2.48-3.94-7.999-1.169-11.644 1.443 2.48.536 7.041 4.556 7.728 7.575 1.296 16.392-4.634 21.842-6.708 3.377-5.696-.293-7.791-3.336-11.457-6.23-7.512-14.59-16.822-14.287-28.067 2.52-1.826 2.736 2.788 3.098 3.628 3.254 7.614 11.442 17.354 17.419 23.871 1.467 1.605 3.883 3.145 4.152 4.206.775 3.088-2.016 6.785-1.692 8.838M75.127 106.619c-2.553-1.458-3.162-7.878-6.16-8.06-4.283-.261-3.502 8.327-3.486 13.35-2.948-2.676-3.467-10.921-1.301-15.154-2.47-1.212-3.573 1.338-4.941 2.236 1.76-12.787 18.706-5.93 15.889 7.628M187.725 117.454c-3.792 7.219-9.157 15.169-20.286 15.4-.226-2.331-.4-5.879.012-7.284 8.508-.816 13.76-5.146 20.274-8.116M134.409 122.134c7.097 3.734 20.142 4.134 29.79 3.851.517 2.114.505 4.725.525 7.303-12.402.618-27.064-2.45-30.315-11.154M133.059 129.094c4.909 12.324 21.779 10.905 36.005 10.565-.626 1.6-1.984 3.49-3.671 4.174-4.56 1.855-17.133 3.262-23.463-.1-4.014-2.133-6.591-6.954-8.791-9.78-1.061-1.365-6.35-4.852-.08-4.86"
     fill="#231f20"
     id="path58"
     inkscape:export-xdpi="3.9856479"
     inkscape:export-ydpi="3.9856479" />
  <path
     d="M181.945 197.071c-5.76 9.865-11.27 19.998-18.105 28.7 2.865-8.425 4.091-22.523 4.524-33.272 5.994-2.804 11.126.632 13.581 4.572"
     fill="#81b0c4"
     id="path60"
     inkscape:export-xdpi="3.9856479"
     inkscape:export-ydpi="3.9856479" />
  <path
     d="M212.94 232.529c-6.449 1.291-10.98 7.559-17.271 7.156 3.457-4.874 9.516-6.929 17.271-7.156M215.785 242.621c-5.256.557-11.43 1.407-16.761.968 2.523-3.855 12.247-2.525 16.761-.968M217.606 251.323c-5.907.128-13.25.01-18.863-.46 3.32-3.568 15.032-1.325 18.863.46"
     fill="#231f20"
     id="path62"
     inkscape:export-xdpi="3.9856479"
     inkscape:export-ydpi="3.9856479" />
  <path
     d="M170.83 275.134c.846 7.419 3.787 14.936 3.42 23.061-3.266 1.101-5.143 2.065-9.52 2.06-.309-6.906-1.233-17.462-.956-24.045 2.153.143 5.327-1.537 7.056-1.076"
     fill="#dcd9d8"
     id="path64"
     inkscape:export-xdpi="3.9856479"
     inkscape:export-ydpi="3.9856479" />
  <path
     d="M161.306 165.794c-2.966 1.936-5.492 4.355-8.341 6.422-6.318.313-9.765-.437-14.406-4.065.076-.29.542-.16.56-.518 6.762 3.012 15.359-1.23 22.187-1.84"
     fill="#f0d6b7"
     id="path66"
     inkscape:export-xdpi="3.9856479"
     inkscape:export-ydpi="3.9856479" />
  <path
     d="M125.806 211.891c1.858-8.05 9.138-12.22 15.749-16.655 6.824 8.66 10.974 19.798 15.544 30.545-10.798-3.255-21.83-8.536-31.293-13.89"
     fill="#81b0c4"
     id="path68"
     inkscape:export-xdpi="3.9856479"
     inkscape:export-ydpi="3.9856479" />
  <path
     d="M163.775 276.21c-.276 6.583.647 17.139.956 24.045 4.378.006 6.253-.957 9.52-2.06.369-8.125-2.573-15.642-3.42-23.061-1.73-.461-4.903 1.219-7.056 1.076zm-68.142-37.436c2.886 26.529 7.065 48.829 14.73 72.321 17.016 5.166 37.526 5.616 52.565.955-2.76-13.259-1.555-29.401-3.168-43.551-1.217-10.635-.596-21.335-2.264-32.185-18.223-3.79-43.98-.885-61.863 2.46zm66.17-2.291c-.153 11.392.51 22.63 1.38 34.038 4.376-.656 7.345-1.095 11.408-1.986-1.319-10.982-1.157-23.34-3.846-33.055-3.106.029-5.843-.036-8.941 1.003zm22.195-1.838c-2.077-.475-4.494-.019-6.478.02.933 9.288 3.195 19.538 3.991 29.286 3.122.097 4.789-1.375 7.357-1.87.137-8.558-.75-20.348-4.87-27.436zm33.605 30.704c6.506-1.579 10.596-9.548 8.777-17.733-1.221-5.5-3.396-15.856-5.724-19.375-1.72-2.6-6.383-6.008-10.107-3.625-6.058 3.88-16.73 5.005-21.146 9.7 2.215 7.375 2.902 17.505 3.816 26.85 7.567.473 16.877-2.082 23.171.63-4.394 1.422-10.095 1.433-13.89 3.507 3.103 1.498 10.366 1.196 15.103.046zm-60.504-39.568c-4.57-10.747-8.721-21.885-15.544-30.545-6.611 4.435-13.891 8.604-15.749 16.655 9.463 5.354 20.495 10.635 31.293 13.89zm11.265-33.28c-.433 10.748-1.659 24.847-4.524 33.27 6.834-8.7 12.345-18.833 18.105-28.698-2.455-3.942-7.587-7.378-13.581-4.573zm-12.77-4.538c-2.589-.28-4.786 2.976-8.154 1.568-.77.853-1.471 1.777-2.257 2.61 7.435 8.96 10.813 21.672 16.556 32.203 3.081-10.115 2.726-21.196 3.405-32.236-4.234.267-6.583-3.83-9.55-4.145zm-8.211-10.838c-.277 3.069.437 4.074 1.056 7.591 10.086 3.153 8.325-13.846-1.056-7.59zm-11.187-3.672c-4.346-2.375-10.877-4.963-16.491-6.033-6.959-1.332-6.306 9.493-6.011 15.949.232 5.114 2.89 10.52 4.046 13.915.543 1.586.664 3.269 2.02 3.584 2.396.558 10.301-2.603 12.555-3.832 4.764-2.597 8.46-6.722 12.506-9.492.053-1.348.104-2.695.158-4.043-2.433-1.21-5.244-2.072-8.815-2.228 2.422-1.22 5.986-1.202 8.194-2.652.02-.54.043-1.077.062-1.613-4.031-.308-5.567-2.103-8.224-3.555zM94.68 165.91c-3.608 3.663 10.117 8.654 14.489 8.924-.025-2.319 1.32-4.502 1.05-6.165-5.192-.911-12.013-.31-15.54-2.759zm44.44 1.72c-.018.358-.484.228-.56.52 4.641 3.627 8.089 4.377 14.406 4.064 2.849-2.067 5.375-4.485 8.341-6.422-6.829.61-15.425 4.852-22.187 1.838zm40.79 12.37c-.195-4.07-1.264-12.436-3.779-13.9-5.279-3.083-14.662 6.22-18.637 7.64.432 1.244 1.146 2.23 1.2 3.822 2.352-.578 5.215-.183 7.252.82-2.355.263-4.969.246-6.527 1.367-.572 1.651.14 3.901-.24 6.195 5.592 1.578 11.98 2.418 19.05 2.625 1.374-1.79 1.843-5.195 1.68-8.57zm-91.303-10.547c-1.132-.808-8.796-10.779-9.845-10.365-13.867 5.469-26.833 14.926-38.421 23.869 11.048 23.705 15.508 52.747 16.295 80.738 12.655 5.92 23.771 14.453 40.944 15.343-1.988-14.06-3.803-26.604-4.93-39.841-4.315-1.82-10.505.082-14.543-.565-.033-4.865 6.168-2.132 6.684-5.403.389-2.475-3.413-2.662-2.175-6.56 3.158 1.148 4.815 3.681 8.181 4.634 3.077-6.73-.042-18.638.4-24.263.084-1.056.528-5.85 2.893-5.01 2.094.744-.119 12.753.11 18.077.209 4.905-.593 9.65 1.394 12.73 16.595-2.26 33.457-3.72 51.412-4.212-3.95-1.695-8.642-3.298-13.787-6.198-2.79-1.572-11.582-4.844-12.387-7.493-1.283-4.221 3.369-6.47 4.165-10.089-8.376 4.57-10.011-4.378-11.992-10.716-1.795-5.741-2.818-10.03-3.258-13.341-7.215-3.44-14.93-6.924-21.14-11.335zm83.974-9.159c11.554-5.602 13.636 20.939 9.107 29.489.7 2.55 3.108 3.526 4.09 5.819-6.447 11.55-13.608 22.332-20.187 33.745 4.894-3.047 11.884-.545 17.643-2.824 2.105-.833 3.628-5.651 5.222-9.506 4.384-10.607 8.985-23.978 11.034-34.1.462-2.305 1.722-7.33 1.44-9.383-.504-3.675-5.49-6.4-8.026-8.672-4.673-4.198-7.615-7.89-12.49-11.815-1.975 2.915-6.217 4.875-7.833 7.247zM62.183 57.835c-5.507 6.056-4.354 17.408-3.687 25.483 9.952-6.262 23.159.493 23.034 11.142 4.751-.127 1.775-5.935.916-9.676-2.808-12.22 4.732-25.496.342-36.671-8.523.647-15.525 4.128-20.605 9.722zm39.392-35.157C89.113 26.21 73.139 35.266 68.018 46.463c3.966-.577 6.718-2.577 10.63-2.824 1.48-.096 3.416.619 5.115.197 3.386-.84 6.243-8.432 8.798-11.257 2.49-2.759 5.484-3.938 7.533-6.453 1.315-.635 3.261-.59 3.336-2.567-.571-.61-1.172-1.075-1.855-.881zM166.454 26c-12.936-7.297-34.833-12.787-48.593-5.929-11.103 5.538-26.112 14.697-31.23 26.304 4.78 11.203-1.416 21.466-1.811 32.838-.21 6.05 2.849 11.333 3.083 17.92-1.637 2.7-6.633 3.032-10.093 2.847-1.164-5.827-3.202-12.377-9.204-13.035-8.491-.929-14.698 6.099-15.085 13.443-.457 8.636 6.633 22.95 16.682 21.957 3.88-.384 4.836-4.275 9.064-4.235 2.292 4.574-3.536 6.01-4.136 9.281-.156.845.484 4.148.855 5.697 1.825 7.54 5.894 17.3 9.899 23.042 5.082 7.284 15.07 8.38 25.814 9.094 1.918-4.134 8.987-3.793 13.593-2.711-5.52-2.187-10.652-7.487-14.905-12.178-4.885-5.382-9.833-11.156-10.083-18.191 9.232 12.807 16.86 23.994 33.646 29.626 12.703 4.261 27.538-1.952 37.296-8.806 4.05-2.849 6.468-7.369 9.346-11.506 10.77-15.494 15.797-37.61 14.693-59.043-.455-8.841-.436-17.65-3.401-23.597-3.1-6.22-13.585-11.783-19.723-6.158-1.137-6.047 5.104-9.789 12.435-7.611-5.226-6.75-10.712-14.856-18.142-19.049zm24.101 199.459c10.109-5.025 28.996-13.526 35.334.019 2.339 4.993 5.082 13.432 6.294 18.587 1.71 7.27-1.855 22.554-9.33 24.994-6.6 2.155-14.303 2.025-22.254.426-.936-.779-1.979-2.136-2.708-3.551-5.677-.22-10.994.306-15.479 2.639.425 4.198-2.415 4.872-5.077 5.737-1.974 7.826 3.949 18.048 2.531 25.184-1.011 5.084-7.266 5.87-11.864 6.821-.15 2.825.202 5.184.515 7.574-1.05 3.874-5.766 6.079-10.235 6.619-14.697 1.765-37.016 2.56-51.153-2.525-3.945-9.678-7.054-21.45-10.34-32.498-13.789 1.473-24.942-5.95-35.455-10.812-3.64-1.688-8.677-2.618-10.035-5.515-1.319-2.807-.78-8.182-1.107-13.262-.832-12.97-1.545-25.482-4.97-38.763-1.538-5.96-4.22-11.22-6.09-16.962-1.728-5.322-4.747-11.9-5.536-17.207-1.167-7.866 6.239-8.304 10.975-11.713 7.323-5.27 13.07-8.186 20.999-12.943 2.349-1.41 9.43-4.975 10.236-6.618 1.601-3.256-2.749-7.847-3.912-10.4-1.84-4.036-2.799-7.465-3.063-11.449-6.652-1.05-11.694-5.01-14.74-9.473-5.039-7.387-8.534-21.055-4.174-31.452.342-.818 2.048-2.428 2.3-3.685.495-2.476-.935-5.77-1.023-8.403-.458-13.512 2.286-25.154 11.382-29.23 3.693-14.712 16.91-19.603 29.363-26.914 4.655-2.733 9.786-4.479 15.086-6.429 19.01-6.996 48.176-5.679 63.954 6.254 6.69 5.06 17.383 15.744 21.208 23.479 10.103 20.42 9.385 54.55 2.32 79.39-.95 3.336-2.328 8.238-4.252 12.245-1.341 2.797-5.51 8.395-5.004 10.865.521 2.553 9.506 9.375 11.431 11.232 3.47 3.346 10.06 7.788 10.593 12.011.574 4.493-1.98 10.64-3.275 14.978-4.321 14.472-8.541 27.849-13.445 40.75"
     fill="#231f20"
     id="path70" />
  <path
     d="M123.114 125.286c.548-.73 3.563-1.838 7.782.193 0 0-5 .832-4.583 9.17l-2.083-.418c-.001 0-2.155-7.558-1.116-8.945"
     fill="#f7e4cd"
     id="path72"
     inkscape:export-xdpi="3.9856479"
     inkscape:export-ydpi="3.9856479" />
  <path
     d="M159.646 196.938a2.291 2.291 0 1 1-4.582 0 2.291 2.291 0 0 1 4.582 0M161.938 207.563a2.292 2.292 0 1 1-4.585-.002 2.292 2.292 0 0 1 4.584.002"
     fill="#1d1919"
     id="path74"
     inkscape:export-xdpi="3.9856479"
     inkscape:export-ydpi="3.9856479" />
</svg>
