<?xml version="1.0" encoding="UTF-8" standalone="no"?>
<svg
   xmlns:dc="http://purl.org/dc/elements/1.1/"
   xmlns:cc="http://creativecommons.org/ns#"
   xmlns:rdf="http://www.w3.org/1999/02/22-rdf-syntax-ns#"
   xmlns:svg="http://www.w3.org/2000/svg"
   xmlns="http://www.w3.org/2000/svg"
   xmlns:sodipodi="http://sodipodi.sourceforge.net/DTD/sodipodi-0.dtd"
   xmlns:inkscape="http://www.inkscape.org/namespaces/inkscape"
   width="2500"
   height="977"
   viewBox="0 0 512 200"
   preserveAspectRatio="xMinYMin meet"
   version="1.1"
   id="svg14"
   sodipodi:docname="jira-logo.svg"
   inkscape:version="0.92.1 r15371">
  <metadata
     id="metadata20">
    <rdf:RDF>
      <cc:Work
         rdf:about="">
        <dc:format>image/svg+xml</dc:format>
        <dc:type
           rdf:resource="http://purl.org/dc/dcmitype/StillImage" />
        <dc:title></dc:title>
      </cc:Work>
    </rdf:RDF>
  </metadata>
  <defs
     id="defs18" />
  <sodipodi:namedview
     pagecolor="#ffffff"
     bordercolor="#666666"
     borderopacity="1"
     objecttolerance="10"
     gridtolerance="10"
     guidetolerance="10"
     inkscape:pageopacity="0"
     inkscape:pageshadow="2"
     inkscape:window-width="640"
     inkscape:window-height="480"
     id="namedview16"
     showgrid="false"
     inkscape:zoom="0.526"
     inkscape:cx="649.13518"
     inkscape:cy="488.5"
     inkscape:current-layer="g12" />
  <g
     fill="#264970"
     id="g12">
    <g
       id="g10"
       inkscape:export-xdpi="3.2948983"
       inkscape:export-ydpi="3.2948983">
      <path
         d="M30.847 12.281c-6.856 0-12.407 5.544-12.407 12.417 0 6.856 5.551 12.42 12.407 12.42 6.86 0 12.406-5.564 12.406-12.42 0-6.873-5.545-12.417-12.406-12.417M112.356 12.281c-6.859 0-12.403 5.544-12.403 12.417 0 6.856 5.544 12.42 12.403 12.42 6.84 0 12.404-5.564 12.404-12.42 0-6.873-5.564-12.408-12.404-12.417M71.601.951c-6.855 0-12.406 5.543-12.406 12.418 0 6.856 5.55 12.42 12.406 12.42 6.86 0 12.405-5.564 12.405-12.42C84.006 6.494 78.46.951 71.6.951M141.686 46.882a3.9 3.9 0 0 0-2.362-.797c-.467 0-.94.085-1.386.257-8.4 3.213-16.932 5.652-24.718 7.466-1.588.37-2.87 1.55-3.402 2.966-5.673 15.539-20.159 30.336-35.357 45.834-.61.579-1.464 1.343-2.855 1.343-1.388 0-2.234-.74-2.855-1.343C53.555 87.11 39.069 72.364 33.394 56.824c-.532-1.415-1.815-2.594-3.4-2.966-7.791-1.814-16.343-4.329-24.734-7.54a3.91 3.91 0 0 0-1.39-.257c-.841 0-1.656.264-2.344.79a3.881 3.881 0 0 0-1.508 3.432c1.287 12.922 6.393 25.555 15.608 38.792 8.662 12.446 19.96 23.966 30.883 35.106 20.126 20.53 39.139 39.918 40.807 62.401a3.889 3.889 0 0 0 3.878 3.6h23.646a3.892 3.892 0 0 0 3.884-4.08c-.744-15.032-6.401-30.086-17.294-46.016-2.283-3.34-4.728-6.59-7.285-9.77-1.039-1.295-.604-2.904.19-3.716.786-.804 1.575-1.606 2.37-2.419 10.923-11.14 22.22-22.66 30.883-35.106 9.214-13.239 14.318-25.797 15.606-38.717.128-1.298-.461-2.676-1.508-3.476M46.232 141.67c-.56-.585-1.381-1.182-2.761-1.182-1.765 0-2.812 1.22-3.208 1.824-9.946 15.135-15.083 29.42-15.793 43.775a3.938 3.938 0 0 0 1.07 2.883 3.937 3.937 0 0 0 2.83 1.212h23.605a3.92 3.92 0 0 0 3.891-3.614c.514-6.919 2.668-13.854 6.59-21.142 1.36-2.521.303-4.89-.479-5.902-3.89-5.06-8.656-10.457-15.745-17.854"
         id="path6" />
      <path
         d="M71.628 58.466c7.41 0 11.708-.445 13.218-.445 1.83 0 3.577 1.499 3.577 3.597 0 .612-.145 1.05-.288 1.437-.983 2.627-5.462 12.08-13.801 20.189-.936.91-1.996 1.08-2.726 1.08H71.6c-.729 0-1.788-.17-2.723-1.08-8.34-8.109-12.82-17.562-13.8-20.19-.145-.386-.29-.824-.29-1.436 0-2.098 1.75-3.597 3.58-3.597 1.51 0 5.805.445 13.213.445h.049"
         id="path8" />
    </g>
  </g>
</svg>
