<?xml version="1.0" encoding="UTF-8" standalone="no"?>
<!-- Created with Inkscape (http://www.inkscape.org/) -->

<svg
   xmlns:dc="http://purl.org/dc/elements/1.1/"
   xmlns:cc="http://creativecommons.org/ns#"
   xmlns:rdf="http://www.w3.org/1999/02/22-rdf-syntax-ns#"
   xmlns:svg="http://www.w3.org/2000/svg"
   xmlns="http://www.w3.org/2000/svg"
   xmlns:sodipodi="http://sodipodi.sourceforge.net/DTD/sodipodi-0.dtd"
   xmlns:inkscape="http://www.inkscape.org/namespaces/inkscape"
   version="1.1"
   id="svg2"
   xml:space="preserve"
   width="1280"
   height="746.66669"
   viewBox="0 0 1280 746.66669"
   sodipodi:docname="lucidchart-logo-2015.svg"
   inkscape:version="0.92.1 r15371"><metadata
     id="metadata8"><rdf:RDF><cc:Work
         rdf:about=""><dc:format>image/svg+xml</dc:format><dc:type
           rdf:resource="http://purl.org/dc/dcmitype/StillImage" /><dc:title></dc:title></cc:Work></rdf:RDF></metadata><defs
     id="defs6"><clipPath
       clipPathUnits="userSpaceOnUse"
       id="clipPath18"><path
         d="M 0,560 H 960 V 0 H 0 Z"
         id="path16"
         inkscape:connector-curvature="0" /></clipPath></defs><sodipodi:namedview
     pagecolor="#ffffff"
     bordercolor="#666666"
     borderopacity="1"
     objecttolerance="10"
     gridtolerance="10"
     guidetolerance="10"
     inkscape:pageopacity="0"
     inkscape:pageshadow="2"
     inkscape:window-width="640"
     inkscape:window-height="480"
     id="namedview4"
     showgrid="false"
     inkscape:zoom="0.65089284"
     inkscape:cx="121.66072"
     inkscape:cy="373.33334"
     inkscape:current-layer="g14" /><g
     id="g10"
     inkscape:groupmode="layer"
     inkscape:label="lucidchart-logo-2015"
     transform="matrix(1.3333333,0,0,-1.3333333,0,746.66667)"><g
       id="g12"><g
         id="g14"
         clip-path="url(#clipPath18)"><g
           id="g50"
           transform="translate(755.4,260.8)" /><g
           id="g58"
           transform="translate(124.44,256.12)"><path
             d="m 0,0 v 0 c -7.32,0.24 -14.16,3 -19.44,8.28 -5.16,5.16 -7.44,12 -7.44,18.84 -0.12,3.72 -1.44,7.32 -4.32,10.2 -5.76,5.76 -15,5.76 -20.76,0 -5.76,-5.76 -5.76,-15 0,-20.76 2.76,-2.76 6.48,-4.2 10.2,-4.32 6.84,0 13.56,-2.16 18.84,-7.44 5.16,-5.16 7.92,-12.12 8.28,-19.2 -0.12,-3.84 1.32,-7.68 4.32,-10.68 5.76,-5.76 15,-5.76 20.76,0 5.76,5.76 5.76,15 0,20.76 C 7.56,-1.44 3.84,0 0,0"
             style="fill:#f78d1e;fill-opacity:1;fill-rule:nonzero;stroke:none"
             id="path60"
             inkscape:connector-curvature="0" /></g><g
           id="g62"
           transform="translate(176.4,251.8)"><path
             d="m 0,0 c -5.76,5.76 -15,5.76 -20.76,0 -5.76,-5.76 -5.76,-15 0,-20.76 5.76,-5.76 15,-5.76 20.76,0 C 5.76,-15 5.76,-5.64 0,0"
             style="fill:#f78d1e;fill-opacity:1;fill-rule:nonzero;stroke:none"
             id="path64"
             inkscape:connector-curvature="0" /></g><g
           id="g66"
           transform="translate(124.44,309.88)"><path
             d="m 0,0 v 0 c -7.32,-0.24 -14.16,-3 -19.44,-8.28 -5.16,-5.16 -7.44,-12 -7.44,-18.84 -0.12,-3.72 -1.44,-7.32 -4.32,-10.2 -5.76,-5.76 -15,-5.76 -20.76,0 -5.76,5.76 -5.76,15 0,20.76 2.76,2.76 6.48,4.2 10.2,4.32 6.84,0 13.56,2.16 18.84,7.44 5.16,5.16 7.92,12.12 8.28,19.2 -0.12,3.84 1.32,7.68 4.32,10.68 5.76,5.76 15,5.76 20.76,0 5.76,-5.76 5.76,-15 0,-20.76 C 7.56,1.44 3.84,0 0,0"
             style="fill:#f78d1e;fill-opacity:1;fill-rule:nonzero;stroke:none"
             id="path68"
             inkscape:connector-curvature="0" /></g><g
           id="g70"
           transform="translate(176.4,314.2)"><path
             d="m 0,0 c -5.76,-5.76 -15,-5.76 -20.76,0 -5.76,5.76 -5.76,15 0,20.76 5.76,5.76 15,5.76 20.76,0 C 5.76,15 5.76,5.76 0,0"
             style="fill:#f78d1e;fill-opacity:1;fill-rule:nonzero;stroke:none"
             id="path72"
             inkscape:connector-curvature="0" /></g></g></g></g></svg>