<?xml version="1.0" encoding="UTF-8" standalone="no"?>
<svg
   xmlns:dc="http://purl.org/dc/elements/1.1/"
   xmlns:cc="http://creativecommons.org/ns#"
   xmlns:rdf="http://www.w3.org/1999/02/22-rdf-syntax-ns#"
   xmlns:svg="http://www.w3.org/2000/svg"
   xmlns="http://www.w3.org/2000/svg"
   xmlns:sodipodi="http://sodipodi.sourceforge.net/DTD/sodipodi-0.dtd"
   xmlns:inkscape="http://www.inkscape.org/namespaces/inkscape"
   width="512px"
   height="146px"
   viewBox="0 0 512 146"
   version="1.1"
   id="svg56"
   sodipodi:docname="mongodb-logo.svg"
   inkscape:version="0.92.1 r15371">
  <metadata
     id="metadata60">
    <rdf:RDF>
      <cc:Work
         rdf:about="">
        <dc:format>image/svg+xml</dc:format>
        <dc:type
           rdf:resource="http://purl.org/dc/dcmitype/StillImage" />
        <dc:title></dc:title>
      </cc:Work>
    </rdf:RDF>
  </metadata>
  <sodipodi:namedview
     pagecolor="#ffffff"
     bordercolor="#666666"
     borderopacity="1"
     objecttolerance="10"
     gridtolerance="10"
     guidetolerance="10"
     inkscape:pageopacity="0"
     inkscape:pageshadow="2"
     inkscape:window-width="640"
     inkscape:window-height="480"
     id="namedview58"
     showgrid="false"
     inkscape:zoom="1.9472656"
     inkscape:cx="116.04455"
     inkscape:cy="73"
     inkscape:current-layer="svg56" />
  <defs
     id="defs32" />
  <g
     stroke="none"
     stroke-width="1"
     fill="none"
     fill-rule="evenodd"
     id="g54">
    <g
       id="g52">
      <g
         id="g50">
        <path
           d="M35.0534362,142.317005 L31.2699893,141.024486 C31.2699893,141.024486 31.7319117,121.737713 24.8108459,120.353673 C20.1968021,115.001416 25.5490584,-106.659184 42.1592709,119.61546 C42.1592709,119.61546 36.43834,122.475926 35.4229741,127.367123 C34.3152237,132.165936 35.0534362,142.317005 35.0534362,142.317005 L35.0534362,142.317005 L35.0534362,142.317005 Z"
           fill="#FFFFFF"
           id="path38" />
        <path
           d="M35.0534362,142.317005 L31.2699893,141.024486 C31.2699893,141.024486 31.7319117,121.737713 24.8108459,120.353673 C20.1968021,115.001416 25.5490584,-106.659184 42.1592709,119.61546 C42.1592709,119.61546 36.43834,122.475926 35.4229741,127.367123 C34.3152237,132.165936 35.0534362,142.317005 35.0534362,142.317005 L35.0534362,142.317005 L35.0534362,142.317005 Z"
           fill="#A6A385"
           id="path40" />
        <path
           d="M37.0841679,123.676061 C37.0841679,123.676061 70.2130718,101.897497 62.461409,56.5867926 C54.9868998,23.6426576 37.360458,12.8457605 35.422974,8.69277572 C33.3007211,5.7399258 31.2699892,0.572438448 31.2699892,0.572438448 L32.6548931,92.2074874 C32.6548931,92.2998718 29.7935642,120.261288 37.0841679,123.676061"
           fill="#FFFFFF"
           id="path42" />
        <path
           d="M37.0841679,123.676061 C37.0841679,123.676061 70.2130718,101.897497 62.461409,56.5867926 C54.9868998,23.6426576 37.360458,12.8457605 35.422974,8.69277572 C33.3007211,5.7399258 31.2699892,0.572438448 31.2699892,0.572438448 L32.6548931,92.2074874 C32.6548931,92.2998718 29.7935642,120.261288 37.0841679,123.676061"
           fill="#499D4A"
           id="path44" />
        <path
           d="M29.332506,124.875332 C29.332506,124.875332 -1.76652951,103.650212 0.0794333896,66.2768026 C1.8321484,28.9025296 23.7954806,10.5387386 28.0399866,7.21635076 C30.8089308,4.26350084 30.9013154,3.15575042 31.0860844,0.202900506 C33.0235682,4.35588532 32.6548938,62.3085868 32.9311838,69.1372682 C33.7617808,95.4374908 31.4547588,119.892614 29.332506,124.875332 L29.332506,124.875332 L29.332506,124.875332 Z"
           fill="#FFFFFF"
           id="path46" />
        <path
           d="M29.332506,124.875332 C29.332506,124.875332 -1.76652951,103.650212 0.0794333896,66.2768026 C1.8321484,28.9025296 23.7954806,10.5387386 28.0399866,7.21635076 C30.8089308,4.26350084 30.9013154,3.15575042 31.0860844,0.202900506 C33.0235682,4.35588532 32.6548938,62.3085868 32.9311838,69.1372682 C33.7617808,95.4374908 31.4547588,119.892614 29.332506,124.875332 L29.332506,124.875332 L29.332506,124.875332 Z"
           fill="#58AA50"
           id="path48" />
      </g>
    </g>
  </g>
</svg>
