<?xml version="1.0" encoding="UTF-8" standalone="no"?>
<svg
   xmlns:dc="http://purl.org/dc/elements/1.1/"
   xmlns:cc="http://creativecommons.org/ns#"
   xmlns:rdf="http://www.w3.org/1999/02/22-rdf-syntax-ns#"
   xmlns:svg="http://www.w3.org/2000/svg"
   xmlns="http://www.w3.org/2000/svg"
   xmlns:xlink="http://www.w3.org/1999/xlink"
   xmlns:sodipodi="http://sodipodi.sourceforge.net/DTD/sodipodi-0.dtd"
   xmlns:inkscape="http://www.inkscape.org/namespaces/inkscape"
   width="2500"
   height="725"
   viewBox="0 0 230.068 66.73"
   version="1.1"
   id="svg63"
   sodipodi:docname="openstack-logo.svg"
   inkscape:version="0.92.1 r15371">
  <metadata
     id="metadata69">
    <rdf:RDF>
      <cc:Work
         rdf:about="">
        <dc:format>image/svg+xml</dc:format>
        <dc:type
           rdf:resource="http://purl.org/dc/dcmitype/StillImage" />
        <dc:title></dc:title>
      </cc:Work>
    </rdf:RDF>
  </metadata>
  <defs
     id="defs67" />
  <sodipodi:namedview
     pagecolor="#ffffff"
     bordercolor="#666666"
     borderopacity="1"
     objecttolerance="10"
     gridtolerance="10"
     guidetolerance="10"
     inkscape:pageopacity="0"
     inkscape:pageshadow="2"
     inkscape:window-width="640"
     inkscape:window-height="480"
     id="namedview65"
     showgrid="false"
     inkscape:zoom="0.526"
     inkscape:cx="293.87573"
     inkscape:cy="362.5"
     inkscape:current-layer="svg63" />
  <path
     fill="#88221A"
     d="M43.46 20.264L20.99 22.218c-1.045.092-1.901 1.014-1.905 2.06l-.006 2.272-2.584.225 2.529 2.501.066 17.184 22.52-1.97c1.05-.093 1.905-1.015 1.908-2.067l.002-2.634 2.477-.217-2.467-2.44-.068-16.868zM3.737 4.156L51.368.014c1.05-.089 1.999.272 2.655.93l1.515 1.496 6.058 5.988c.603.596.969 1.428.969 2.383l-.037 11.963-2.562.222 2.5 2.478.072 18.141-2.471.218 2.47 2.44-.023 12.328c-.007 1.997-1.634 3.765-3.646 3.943l-47.63 4.173c-1.051.092-2-.274-2.662-.93l-7.568-7.485c-.601-.595-.965-1.432-.962-2.379l.023-12.328 2.476-.218-2.471-2.442-.072-18.137 2.593-.228L.06 20.063.094 8.101c0-2.007 1.634-3.77 3.642-3.945z"
     id="path2" />
  <path
     fill="#C63827"
     d="M19.09 46.46l22.52-1.971 7.569 7.486-28.204 2.47c-1.048.094-1.893-.681-1.893-1.732l.008-2.636-2.47-2.44 2.474-.217-.004-.96z"
     id="path4" />
  <g
     transform="translate(-543.432 -897.23) scale(1.37041)"
     id="g13">
    <linearGradient
       id="a"
       gradientUnits="userSpaceOnUse"
       x1="674.074"
       y1="275.751"
       x2="675.553"
       y2="277.23"
       gradientTransform="matrix(1.3704 0 0 -1.3704 -494.01 1067.911)">
      <stop
         offset="0"
         stop-color="#c63827"
         id="stop6" />
      <stop
         offset="1"
         stop-color="#88221a"
         id="stop8" />
    </linearGradient>
    <path
       fill="url(#a)"
       d="M432.432 692.642l-5.523-5.463c.766-.067 1.39-.74 1.392-1.508l5.523 5.465c-.003.766-.629 1.438-1.392 1.506z"
       id="path11" />
  </g>
  <g
     transform="translate(-543.432 -897.23) scale(1.37041)"
     id="g22">
    <linearGradient
       id="b"
       gradientUnits="userSpaceOnUse"
       x1="651.688"
       y1="295.408"
       x2="654.486"
       y2="298.206"
       gradientTransform="matrix(1.3704 0 0 -1.3704 -494.01 1067.912)">
      <stop
         offset="0"
         stop-color="#88221a"
         id="stop15" />
      <stop
         offset="1"
         stop-color="#c43827"
         id="stop17" />
    </linearGradient>
    <path
       fill="url(#b)"
       d="M402.137 666.088l-5.523-5.463c.002-1.463 1.193-2.75 2.659-2.877l5.522 5.463c-1.463.13-2.655 1.415-2.658 2.877z"
       id="path20" />
  </g>
  <g
     transform="translate(-543.432 -897.23) scale(1.37041)"
     id="g39">
    <defs
       id="defs25">
      <path
         id="c"
         d="M402.137 666.088l-5.523-5.463c.002-1.463 1.193-2.75 2.659-2.877l5.522 5.463c-1.463.13-2.655 1.415-2.658 2.877z" />
    </defs>
    <clipPath
       id="d">
      <use
         xlink:href="#c"
         overflow="visible"
         id="use27" />
    </clipPath>
    <g
       clip-path="url(#d)"
       id="g37">
      <linearGradient
         id="e"
         gradientUnits="userSpaceOnUse"
         x1="659.627"
         y1="291.506"
         x2="678.547"
         y2="310.426"
         gradientTransform="matrix(1.3704 0 0 -1.3704 -494.01 1067.912)">
        <stop
           offset="0"
           stop-color="#88221a"
           id="stop30" />
        <stop
           offset="1"
           stop-color="#c43827"
           id="stop32" />
      </linearGradient>
      <path
         fill="url(#e)"
         d="M434.029 654.727l5.521 5.46-34.755 3.025-5.523-5.463z"
         id="path35" />
    </g>
  </g>
  <path
     fill="#D83C27"
     d="M62.537 46.27l-.023 12.33c-.007 1.997-1.633 3.764-3.647 3.942L11.24 66.715c-2.005.177-3.632-1.308-3.626-3.306l.023-12.327 11.454-1.005-.008 2.636c0 1.05.845 1.826 1.893 1.732l28.204-2.47c1.047-.092 1.904-1.012 1.907-2.064l.006-2.636 11.445-1.005z"
     id="path41" />
  <path
     fill="#E1473B"
     d="M51.096 44.615l-.073-18.139 11.444-1.003.072 18.14z"
     id="path43" />
  <path
     fill="#C43827"
     d="M54.024.944L55.54 2.44l6.057 5.989c-.66-.658-1.61-1.018-2.663-.93l-47.627 4.144-7.569-7.487L51.368.015c1.049-.09 1.999.272 2.656.929z"
     id="path45" />
  <path
     fill="#E1473B"
     d="M7.641 48.42l-.07-18.138 11.453-1.006.07 18.143z"
     id="path47" />
  <path
     fill="#E4574E"
     d="M11.304 11.644L58.932 7.5c2.01-.169 3.634 1.309 3.631 3.314l-.037 11.962-11.445.999.002-2.275c.002-1.051-.848-1.823-1.892-1.73l-28.205 2.45c-1.044.093-1.9 1.015-1.904 2.058l-.006 2.273-11.448 1 .031-11.963c.007-2.005 1.64-3.767 3.645-3.944z"
     id="path49" />
  <path
     opacity=".3"
     fill="#FFF"
     d="M51.09 47.275l-.005 2.636c-.003 1.052-.862 1.971-1.908 2.064l-28.203 2.47c-.943.085-1.722-.536-1.866-1.423.137.77.812 1.3 1.636 1.227l28.414-2.485c.937-.083 1.71-.913 1.713-1.853l.007-2.636v-.213l.212.213z"
     id="path51" />
  <path
     opacity=".3"
     fill="#FFF"
     d="M18.868 52.713l.007-2.617.213-.019-.008 2.636c0 1.05.846 1.826 1.894 1.732l28.203-2.47c1.047-.092 1.905-1.012 1.908-2.064l.005-2.636.217-.02-.01 2.656c-.003 1.164-.945 2.177-2.102 2.277l-28.2 2.47c-1.172.106-2.129-.767-2.127-1.945z"
     id="path53" />
</svg>
