<?xml version="1.0" encoding="UTF-8" standalone="no"?>
<svg
   xmlns:dc="http://purl.org/dc/elements/1.1/"
   xmlns:cc="http://creativecommons.org/ns#"
   xmlns:rdf="http://www.w3.org/1999/02/22-rdf-syntax-ns#"
   xmlns:svg="http://www.w3.org/2000/svg"
   xmlns="http://www.w3.org/2000/svg"
   xmlns:sodipodi="http://sodipodi.sourceforge.net/DTD/sodipodi-0.dtd"
   xmlns:inkscape="http://www.inkscape.org/namespaces/inkscape"
   version="1.1"
   x="0"
   y="0"
   width="1500"
   height="1500"
   viewBox="0, 0, 1500, 1500"
   id="svg36"
   sodipodi:docname="pytest_logo.svg"
   inkscape:version="0.92.1 r15371">
  <metadata
     id="metadata42">
    <rdf:RDF>
      <cc:Work
         rdf:about="">
        <dc:format>image/svg+xml</dc:format>
        <dc:type
           rdf:resource="http://purl.org/dc/dcmitype/StillImage" />
        <dc:title></dc:title>
      </cc:Work>
    </rdf:RDF>
  </metadata>
  <defs
     id="defs40" />
  <sodipodi:namedview
     pagecolor="#ffffff"
     bordercolor="#666666"
     borderopacity="1"
     objecttolerance="10"
     gridtolerance="10"
     guidetolerance="10"
     inkscape:pageopacity="0"
     inkscape:pageshadow="2"
     inkscape:window-width="640"
     inkscape:window-height="480"
     id="namedview38"
     showgrid="false"
     inkscape:zoom="0.324"
     inkscape:cx="288.58025"
     inkscape:cy="750"
     inkscape:current-layer="pytest_logo" />
  <g
     id="pytest_logo">
    <g
       id="graphics"
       inkscape:export-xdpi="5.6793928"
       inkscape:export-ydpi="5.6793928">
      <path
         d="M521.576,213.75 L952.616,213.75 C964.283,213.75 973.741,223.208 973.741,234.875 L973.741,234.875 C973.741,246.542 964.283,256 952.616,256 L521.576,256 C509.909,256 500.451,246.542 500.451,234.875 L500.451,234.875 C500.451,223.208 509.909,213.75 521.576,213.75 z"
         fill="#696969"
         id="horizontal_bar" />
      <g
         id="top_bars">
        <path
           d="M525.333,171 L612,171 L612,191 L525.333,191 L525.333,171 z"
           fill="#009FE3"
           id="path3" />
        <path
           d="M638.667,171 L725.333,171 L725.333,191 L638.667,191 L638.667,171 z"
           fill="#C7D302"
           id="path5" />
        <path
           d="M750.5,171 L837.167,171 L837.167,191 L750.5,191 L750.5,171 z"
           fill="#F07E16"
           id="path7" />
        <path
           d="M861.861,171 L948.528,171 L948.528,191 L861.861,191 L861.861,171 z"
           fill="#DF2815"
           id="path9" />
      </g>
      <g
         id="bottom_bars">
        <path
           d="M861.861,278 L948.528,278 L948.528,424.5 L861.861,424.5 L861.861,278 z"
           fill="#DF2815"
           id="path12" />
        <path
           d="M750.5,278 L837.328,278 L837.328,516 L750.5,516 L750.5,278 z"
           fill="#F07E16"
           id="path14" />
        <path
           d="M638.667,278 L725.328,278 L725.328,634.5 L638.667,634.5 L638.667,278 z"
           fill="#C7D302"
           id="path16" />
        <path
           d="M525.333,278 L612,278 L612,712.5 L525.333,712.5 L525.333,278 z"
           fill="#009FE3"
           id="path18" />
      </g>
    </g>
  </g>
</svg>
